<svg width="78" height="13" viewBox="0 0 78 13" fill="none" xmlns="http://www.w3.org/2000/svg">
<path d="M4.17614 12.1847C3.48011 12.1847 2.86222 12.0687 2.32244 11.8366C1.78741 11.5999 1.36364 11.2448 1.05114 10.7713C0.743371 10.2931 0.589489 9.69413 0.589489 8.97443C0.589489 8.36837 0.696023 7.85701 0.909091 7.44034C1.12216 7.02367 1.41572 6.68513 1.78977 6.42472C2.16383 6.1643 2.5947 5.9678 3.08239 5.83523C3.57008 5.69792 4.09091 5.60559 4.64489 5.55824C5.26515 5.50142 5.76468 5.44223 6.14347 5.38068C6.52225 5.31439 6.79688 5.22206 6.96733 5.10369C7.14252 4.98059 7.23011 4.80776 7.23011 4.58523V4.54972C7.23011 4.18513 7.10464 3.90341 6.85369 3.70455C6.60275 3.50568 6.2642 3.40625 5.83807 3.40625C5.37879 3.40625 5.00947 3.50568 4.73011 3.70455C4.45076 3.90341 4.2732 4.17803 4.19744 4.52841L0.994318 4.41477C1.08902 3.75189 1.33286 3.16004 1.72585 2.6392C2.12358 2.11364 2.66809 1.7017 3.35938 1.40341C4.0554 1.10038 4.8911 0.948864 5.86648 0.948864C6.5625 0.948864 7.20407 1.03172 7.79119 1.19744C8.37831 1.35843 8.88968 1.59517 9.32528 1.90767C9.76089 2.21544 10.0971 2.59422 10.3338 3.04403C10.5753 3.49384 10.696 4.00758 10.696 4.58523V12H7.42898V10.4801H7.34375C7.14962 10.8494 6.90104 11.1619 6.59801 11.4176C6.29972 11.6733 5.94697 11.8651 5.53977 11.9929C5.13731 12.1207 4.68277 12.1847 4.17614 12.1847ZM5.24858 9.91193C5.62263 9.91193 5.95881 9.83617 6.2571 9.68466C6.56013 9.53314 6.80161 9.32481 6.98153 9.05966C7.16146 8.78977 7.25142 8.47727 7.25142 8.12216V7.08523C7.15199 7.13731 7.03125 7.18466 6.8892 7.22727C6.75189 7.26989 6.60038 7.31013 6.43466 7.34801C6.26894 7.38589 6.09849 7.41903 5.9233 7.44744C5.74811 7.47585 5.58002 7.50189 5.41903 7.52557C5.09233 7.57765 4.81297 7.65814 4.58097 7.76705C4.35369 7.87595 4.1785 8.01799 4.0554 8.19318C3.93703 8.36364 3.87784 8.56723 3.87784 8.80398C3.87784 9.16383 4.00568 9.43845 4.26136 9.62784C4.52178 9.81723 4.85085 9.91193 5.24858 9.91193ZM12.8196 12V1.09091H16.1222V3.09375H16.2429C16.4702 2.43087 16.8537 1.90767 17.3935 1.52415C17.9332 1.14062 18.5772 0.948864 19.3253 0.948864C20.0829 0.948864 20.7315 1.14299 21.2713 1.53125C21.8111 1.91951 22.1544 2.44034 22.3011 3.09375H22.4148C22.6184 2.44508 23.0161 1.92661 23.608 1.53835C24.1998 1.14536 24.8982 0.948864 25.7031 0.948864C26.7353 0.948864 27.5734 1.2803 28.2173 1.94318C28.8613 2.60133 29.1832 3.50568 29.1832 4.65625V12H25.7102V5.4517C25.7102 4.9072 25.5705 4.4929 25.2912 4.20881C25.0118 3.91998 24.6496 3.77557 24.2045 3.77557C23.7263 3.77557 23.3499 3.93182 23.0753 4.24432C22.8054 4.55208 22.6705 4.96638 22.6705 5.48722V12H19.3324V5.41619C19.3324 4.90956 19.1951 4.50947 18.9205 4.21591C18.6458 3.92235 18.2836 3.77557 17.8338 3.77557C17.5308 3.77557 17.2633 3.84896 17.0312 3.99574C16.7992 4.13778 16.617 4.34138 16.4844 4.60653C16.3565 4.87169 16.2926 5.18419 16.2926 5.54403V12H12.8196ZM34.4105 12.1847C33.7145 12.1847 33.0966 12.0687 32.5568 11.8366C32.0218 11.5999 31.598 11.2448 31.2855 10.7713C30.9777 10.2931 30.8239 9.69413 30.8239 8.97443C30.8239 8.36837 30.9304 7.85701 31.1435 7.44034C31.3565 7.02367 31.6501 6.68513 32.0241 6.42472C32.3982 6.1643 32.8291 5.9678 33.3168 5.83523C33.8045 5.69792 34.3253 5.60559 34.8793 5.55824C35.4995 5.50142 35.9991 5.44223 36.3778 5.38068C36.7566 5.31439 37.0313 5.22206 37.2017 5.10369C37.3769 4.98059 37.4645 4.80776 37.4645 4.58523V4.54972C37.4645 4.18513 37.339 3.90341 37.0881 3.70455C36.8371 3.50568 36.4986 3.40625 36.0724 3.40625C35.6132 3.40625 35.2438 3.50568 34.9645 3.70455C34.6851 3.90341 34.5076 4.17803 34.4318 4.52841L31.2287 4.41477C31.3234 3.75189 31.5672 3.16004 31.9602 2.6392C32.358 2.11364 32.9025 1.7017 33.5938 1.40341C34.2898 1.10038 35.1255 0.948864 36.1009 0.948864C36.7969 0.948864 37.4384 1.03172 38.0256 1.19744C38.6127 1.35843 39.1241 1.59517 39.5597 1.90767C39.9953 2.21544 40.3314 2.59422 40.5682 3.04403C40.8097 3.49384 40.9304 4.00758 40.9304 4.58523V12H37.6634V10.4801H37.5781C37.384 10.8494 37.1354 11.1619 36.8324 11.4176C36.5341 11.6733 36.1813 11.8651 35.7741 11.9929C35.3717 12.1207 34.9171 12.1847 34.4105 12.1847ZM35.483 9.91193C35.857 9.91193 36.1932 9.83617 36.4915 9.68466C36.7945 9.53314 37.036 9.32481 37.2159 9.05966C37.3958 8.78977 37.4858 8.47727 37.4858 8.12216V7.08523C37.3864 7.13731 37.2656 7.18466 37.1236 7.22727C36.9863 7.26989 36.8348 7.31013 36.669 7.34801C36.5033 7.38589 36.3329 7.41903 36.1577 7.44744C35.9825 7.47585 35.8144 7.50189 35.6534 7.52557C35.3267 7.57765 35.0473 7.65814 34.8153 7.76705C34.5881 7.87595 34.4129 8.01799 34.2898 8.19318C34.1714 8.36364 34.1122 8.56723 34.1122 8.80398C34.1122 9.16383 34.2401 9.43845 34.4957 9.62784C34.7562 9.81723 35.0852 9.91193 35.483 9.91193ZM43.0824 12V10.0185L48.1392 3.8608V3.78977H43.2599V1.09091H52.2798V3.2642L47.5923 9.23011V9.30114H52.4503V12H43.0824ZM59.4744 12.206C58.3286 12.206 57.3438 11.9716 56.5199 11.5028C55.7008 11.0294 55.0687 10.3712 54.6236 9.52841C54.1832 8.68087 53.9631 7.69839 53.9631 6.58097C53.9631 5.45881 54.1832 4.47633 54.6236 3.63352C55.0687 2.78598 55.7008 2.12784 56.5199 1.65909C57.3438 1.18561 58.3286 0.948864 59.4744 0.948864C60.6203 0.948864 61.6027 1.18561 62.4219 1.65909C63.2457 2.12784 63.8778 2.78598 64.3182 3.63352C64.7633 4.47633 64.9858 5.45881 64.9858 6.58097C64.9858 7.69839 64.7633 8.68087 64.3182 9.52841C63.8778 10.3712 63.2457 11.0294 62.4219 11.5028C61.6027 11.9716 60.6203 12.206 59.4744 12.206ZM59.4957 9.58523C59.9124 9.58523 60.2652 9.45739 60.554 9.2017C60.8428 8.94602 61.063 8.59091 61.2145 8.13636C61.3707 7.68182 61.4489 7.15625 61.4489 6.55966C61.4489 5.9536 61.3707 5.4233 61.2145 4.96875C61.063 4.5142 60.8428 4.15909 60.554 3.90341C60.2652 3.64773 59.9124 3.51989 59.4957 3.51989C59.0649 3.51989 58.7003 3.64773 58.402 3.90341C58.1084 4.15909 57.8835 4.5142 57.7273 4.96875C57.5758 5.4233 57.5 5.9536 57.5 6.55966C57.5 7.15625 57.5758 7.68182 57.7273 8.13636C57.8835 8.59091 58.1084 8.94602 58.402 9.2017C58.7003 9.45739 59.0649 9.58523 59.4957 9.58523ZM70.2379 5.77841V12H66.7649V1.09091H70.0675V3.09375H70.1882C70.4297 2.42614 70.8416 1.90294 71.424 1.52415C72.0064 1.14062 72.7 0.948864 73.505 0.948864C74.272 0.948864 74.9373 1.12169 75.5007 1.46733C76.0689 1.80824 76.5092 2.28646 76.8217 2.90199C77.139 3.51278 77.2952 4.22775 77.2905 5.04688V12H73.8175V5.72869C73.8222 5.12263 73.6683 4.64915 73.3558 4.30824C73.0481 3.96733 72.6196 3.79688 72.0703 3.79688C71.7057 3.79688 71.3838 3.87737 71.1044 4.03835C70.8298 4.1946 70.6167 4.41951 70.4652 4.71307C70.3184 5.00663 70.2427 5.36174 70.2379 5.77841Z" fill="#079D46"/>
</svg>
