<svg width="93" height="17" viewBox="0 0 93 17" fill="none" xmlns="http://www.w3.org/2000/svg">
<path d="M7.30114 5.09091V7.64773H0.284091V5.09091H7.30114ZM1.74716 16V4.53693C1.74716 3.69413 1.90578 2.99574 2.22301 2.44176C2.54025 1.88305 2.98059 1.46638 3.54403 1.19176C4.10748 0.912405 4.75852 0.772726 5.49716 0.772726C5.98011 0.772726 6.43466 0.810605 6.8608 0.886364C7.29167 0.957386 7.61127 1.02131 7.8196 1.07812L7.26562 3.62074C7.13778 3.57812 6.98153 3.54261 6.79688 3.5142C6.61695 3.48579 6.4465 3.47159 6.28551 3.47159C5.87831 3.47159 5.59896 3.56155 5.44744 3.74148C5.29593 3.9214 5.22017 4.16761 5.22017 4.48011V16H1.74716ZM11.6175 16.1847C10.9215 16.1847 10.3036 16.0687 9.76385 15.8366C9.22881 15.5999 8.80504 15.2448 8.49254 14.7713C8.18478 14.2931 8.03089 13.6941 8.03089 12.9744C8.03089 12.3684 8.13743 11.857 8.3505 11.4403C8.56357 11.0237 8.85713 10.6851 9.23118 10.4247C9.60523 10.1643 10.0361 9.9678 10.5238 9.83523C11.0115 9.69792 11.5323 9.60559 12.0863 9.55824C12.7066 9.50142 13.2061 9.44223 13.5849 9.38068C13.9637 9.31439 14.2383 9.22206 14.4087 9.10369C14.5839 8.98059 14.6715 8.80776 14.6715 8.58523V8.54972C14.6715 8.18513 14.546 7.90341 14.2951 7.70455C14.0442 7.50568 13.7056 7.40625 13.2795 7.40625C12.8202 7.40625 12.4509 7.50568 12.1715 7.70455C11.8922 7.90341 11.7146 8.17803 11.6388 8.52841L8.43572 8.41477C8.53042 7.75189 8.77427 7.16004 9.16726 6.6392C9.56499 6.11364 10.1095 5.7017 10.8008 5.40341C11.4968 5.10038 12.3325 4.94886 13.3079 4.94886C14.0039 4.94886 14.6455 5.03172 15.2326 5.19744C15.8197 5.35843 16.3311 5.59517 16.7667 5.90767C17.2023 6.21544 17.5385 6.59422 17.7752 7.04403C18.0167 7.49384 18.1374 8.00758 18.1374 8.58523V16H14.8704V14.4801H14.7852C14.591 14.8494 14.3424 15.1619 14.0394 15.4176C13.7411 15.6733 13.3884 15.8651 12.9812 15.9929C12.5787 16.1207 12.1242 16.1847 11.6175 16.1847ZM12.69 13.9119C13.064 13.9119 13.4002 13.8362 13.6985 13.6847C14.0015 13.5331 14.243 13.3248 14.4229 13.0597C14.6029 12.7898 14.6928 12.4773 14.6928 12.1222V11.0852C14.5934 11.1373 14.4727 11.1847 14.3306 11.2273C14.1933 11.2699 14.0418 11.3101 13.8761 11.348C13.7103 11.3859 13.5399 11.419 13.3647 11.4474C13.1895 11.4759 13.0214 11.5019 12.8604 11.5256C12.5337 11.5777 12.2544 11.6581 12.0224 11.767C11.7951 11.8759 11.6199 12.018 11.4968 12.1932C11.3784 12.3636 11.3192 12.5672 11.3192 12.804C11.3192 13.1638 11.4471 13.4384 11.7028 13.6278C11.9632 13.8172 12.2923 13.9119 12.69 13.9119ZM25.3533 16.206C24.2028 16.206 23.2156 15.9692 22.3917 15.4957C21.5726 15.0223 20.9428 14.3641 20.5025 13.5213C20.0621 12.6738 19.842 11.6937 19.842 10.581C19.842 9.46354 20.0621 8.48343 20.5025 7.64062C20.9476 6.79309 21.5797 6.13258 22.3988 5.65909C23.2227 5.18561 24.2051 4.94886 25.3462 4.94886C26.3548 4.94886 27.2331 5.13116 27.9812 5.49574C28.734 5.86032 29.3211 6.37642 29.7425 7.04403C30.1687 7.70691 30.3936 8.4858 30.4173 9.38068H27.1715C27.1052 8.82197 26.9158 8.384 26.6033 8.06676C26.2956 7.74953 25.8931 7.59091 25.396 7.59091C24.9935 7.59091 24.6407 7.70455 24.3377 7.93182C24.0347 8.15436 23.7979 8.4858 23.6275 8.92614C23.4618 9.36174 23.3789 9.90151 23.3789 10.5455C23.3789 11.1894 23.4618 11.7339 23.6275 12.179C23.7979 12.6193 24.0347 12.9531 24.3377 13.1804C24.6407 13.4029 24.9935 13.5142 25.396 13.5142C25.7179 13.5142 26.002 13.4455 26.2482 13.3082C26.4992 13.1709 26.7051 12.9697 26.8661 12.7045C27.0271 12.4347 27.1289 12.108 27.1715 11.7244H30.4173C30.3841 12.6241 30.1592 13.41 29.7425 14.0824C29.3306 14.7547 28.7506 15.2779 28.0025 15.652C27.2591 16.0213 26.3761 16.206 25.3533 16.206ZM37.294 16.206C36.1529 16.206 35.1681 15.9811 34.3395 15.5312C33.5156 15.0767 32.8812 14.4304 32.4361 13.5923C31.9957 12.7495 31.7756 11.7481 31.7756 10.5881C31.7756 9.46117 31.9981 8.47633 32.4432 7.63352C32.8883 6.78598 33.5156 6.12784 34.3253 5.65909C35.1349 5.18561 36.089 4.94886 37.1875 4.94886C37.964 4.94886 38.6742 5.0696 39.3182 5.31108C39.9621 5.55256 40.5185 5.91004 40.9872 6.38352C41.456 6.85701 41.8205 7.44176 42.081 8.13778C42.3414 8.82907 42.4716 9.62216 42.4716 10.517V11.3835H32.9901V9.36648H39.2401C39.2353 8.99716 39.1477 8.66809 38.9773 8.37926C38.8068 8.09044 38.5724 7.86553 38.2741 7.70455C37.9806 7.53883 37.642 7.45597 37.2585 7.45597C36.8703 7.45597 36.5223 7.54356 36.2145 7.71875C35.9067 7.8892 35.6629 8.12358 35.483 8.42188C35.303 8.71544 35.2083 9.04924 35.1989 9.4233V11.4759C35.1989 11.9209 35.2865 12.3116 35.4616 12.6477C35.6368 12.9792 35.8854 13.2372 36.2074 13.4219C36.5294 13.6065 36.9129 13.6989 37.358 13.6989C37.6657 13.6989 37.9451 13.6562 38.196 13.571C38.447 13.4858 38.6624 13.3603 38.8423 13.1946C39.0223 13.0289 39.1572 12.8253 39.2472 12.5838L42.4361 12.6761C42.3035 13.3911 42.0123 14.0137 41.5625 14.544C41.1174 15.0696 40.5327 15.4792 39.8082 15.7727C39.0838 16.0616 38.2457 16.206 37.294 16.206ZM44.2454 16V1.45455H47.7184V6.95881H47.7894C47.9315 6.62737 48.1327 6.30777 48.3931 6C48.6583 5.69223 48.9944 5.44129 49.4016 5.24716C49.8136 5.0483 50.306 4.94886 50.8789 4.94886C51.6365 4.94886 52.3443 5.14773 53.0025 5.54545C53.6654 5.94318 54.2004 6.55634 54.6076 7.38494C55.0148 8.21354 55.2184 9.26941 55.2184 10.5526C55.2184 11.7884 55.0219 12.8229 54.6289 13.6562C54.2406 14.4896 53.7151 15.1146 53.0522 15.5312C52.3941 15.9479 51.6625 16.1562 50.8576 16.1562C50.3084 16.1562 49.8325 16.0663 49.43 15.8864C49.0276 15.7064 48.689 15.4697 48.4144 15.1761C48.1445 14.8826 47.9362 14.5677 47.7894 14.2315H47.6829V16H44.2454ZM47.6474 10.5455C47.6474 11.1326 47.7255 11.6439 47.8817 12.0795C48.0427 12.5152 48.2724 12.8537 48.5707 13.0952C48.8737 13.3319 49.2359 13.4503 49.6573 13.4503C50.0835 13.4503 50.4457 13.3319 50.744 13.0952C51.0423 12.8537 51.2672 12.5152 51.4187 12.0795C51.5749 11.6439 51.6531 11.1326 51.6531 10.5455C51.6531 9.95833 51.5749 9.44934 51.4187 9.01847C51.2672 8.58759 51.0423 8.25379 50.744 8.01705C50.4504 7.7803 50.0882 7.66193 49.6573 7.66193C49.2312 7.66193 48.869 7.77794 48.5707 8.00994C48.2724 8.24195 48.0427 8.57339 47.8817 9.00426C47.7255 9.43513 47.6474 9.94886 47.6474 10.5455ZM62.1307 16.206C60.9848 16.206 60 15.9716 59.1761 15.5028C58.357 15.0294 57.7249 14.3712 57.2798 13.5284C56.8395 12.6809 56.6193 11.6984 56.6193 10.581C56.6193 9.45881 56.8395 8.47633 57.2798 7.63352C57.7249 6.78598 58.357 6.12784 59.1761 5.65909C60 5.18561 60.9848 4.94886 62.1307 4.94886C63.2765 4.94886 64.259 5.18561 65.0781 5.65909C65.902 6.12784 66.5341 6.78598 66.9744 7.63352C67.4195 8.47633 67.642 9.45881 67.642 10.581C67.642 11.6984 67.4195 12.6809 66.9744 13.5284C66.5341 14.3712 65.902 15.0294 65.0781 15.5028C64.259 15.9716 63.2765 16.206 62.1307 16.206ZM62.152 13.5852C62.5687 13.5852 62.9214 13.4574 63.2102 13.2017C63.4991 12.946 63.7192 12.5909 63.8707 12.1364C64.027 11.6818 64.1051 11.1562 64.1051 10.5597C64.1051 9.9536 64.027 9.4233 63.8707 8.96875C63.7192 8.5142 63.4991 8.15909 63.2102 7.90341C62.9214 7.64773 62.5687 7.51989 62.152 7.51989C61.7211 7.51989 61.3565 7.64773 61.0582 7.90341C60.7647 8.15909 60.5398 8.5142 60.3835 8.96875C60.232 9.4233 60.1562 9.9536 60.1562 10.5597C60.1562 11.1562 60.232 11.6818 60.3835 12.1364C60.5398 12.5909 60.7647 12.946 61.0582 13.2017C61.3565 13.4574 61.7211 13.5852 62.152 13.5852ZM74.5135 16.206C73.3677 16.206 72.3828 15.9716 71.5589 15.5028C70.7398 15.0294 70.1077 14.3712 69.6626 13.5284C69.2223 12.6809 69.0021 11.6984 69.0021 10.581C69.0021 9.45881 69.2223 8.47633 69.6626 7.63352C70.1077 6.78598 70.7398 6.12784 71.5589 5.65909C72.3828 5.18561 73.3677 4.94886 74.5135 4.94886C75.6593 4.94886 76.6418 5.18561 77.4609 5.65909C78.2848 6.12784 78.9169 6.78598 79.3572 7.63352C79.8023 8.47633 80.0249 9.45881 80.0249 10.581C80.0249 11.6984 79.8023 12.6809 79.3572 13.5284C78.9169 14.3712 78.2848 15.0294 77.4609 15.5028C76.6418 15.9716 75.6593 16.206 74.5135 16.206ZM74.5348 13.5852C74.9515 13.5852 75.3042 13.4574 75.593 13.2017C75.8819 12.946 76.102 12.5909 76.2536 12.1364C76.4098 11.6818 76.4879 11.1562 76.4879 10.5597C76.4879 9.9536 76.4098 9.4233 76.2536 8.96875C76.102 8.5142 75.8819 8.15909 75.593 7.90341C75.3042 7.64773 74.9515 7.51989 74.5348 7.51989C74.1039 7.51989 73.7393 7.64773 73.4411 7.90341C73.1475 8.15909 72.9226 8.5142 72.7663 8.96875C72.6148 9.4233 72.5391 9.9536 72.5391 10.5597C72.5391 11.1562 72.6148 11.6818 72.7663 12.1364C72.9226 12.5909 73.1475 12.946 73.4411 13.2017C73.7393 13.4574 74.1039 13.5852 74.5348 13.5852ZM84.9361 13.1378L84.9503 8.99716H85.4332L88.5014 5.09091H92.4361L87.8764 10.6875H86.9602L84.9361 13.1378ZM81.804 16V1.45455H85.277V16H81.804ZM88.5795 16L85.7244 11.4688L88.0114 9.00426L92.5923 16H88.5795Z" fill="#079D46"/>
</svg>
