<svg width="72" height="24" viewBox="0 0 72 24" fill="none" xmlns="http://www.w3.org/2000/svg">
<g filter="url(#filter0_d_3_8)">
<path d="M4.64773 3.30966L5.13068 0.454545H17.4247L16.9418 3.30966H12.5312L10.5994 15H7.13352L9.06534 3.30966H4.64773ZM16.7269 15L19.1417 0.454545H29.2837L28.8008 3.30966H22.1744L21.6914 6.29261H27.7994L27.3164 9.15483H21.2085L20.7255 12.1449H27.3519L26.869 15H16.7269ZM38.609 4.84375C38.6469 4.30871 38.5049 3.89441 38.1829 3.60085C37.8656 3.30729 37.3638 3.16051 36.6772 3.16051C36.2227 3.16051 35.8344 3.2197 35.5124 3.33807C35.1905 3.4517 34.9371 3.61269 34.7525 3.82102C34.5678 4.02462 34.4518 4.26136 34.4045 4.53125C34.3619 4.74432 34.3737 4.93371 34.44 5.09943C34.5063 5.26515 34.6223 5.41193 34.788 5.53977C34.9585 5.66761 35.1692 5.77888 35.4201 5.87358C35.6758 5.96828 35.9622 6.05114 36.2795 6.12216L37.4727 6.40625C38.1639 6.5625 38.7629 6.77083 39.2695 7.03125C39.7809 7.28693 40.1952 7.59706 40.5124 7.96165C40.8297 8.3215 41.0475 8.7358 41.1658 9.20455C41.2842 9.6733 41.2937 10.1989 41.1942 10.7812C41.0427 11.6998 40.6805 12.4882 40.1076 13.1463C39.5394 13.8045 38.796 14.3087 37.8775 14.6591C36.9637 15.0095 35.9007 15.1847 34.6886 15.1847C33.4764 15.1847 32.4466 15.0024 31.5991 14.6378C30.7563 14.2685 30.1455 13.7121 29.7667 12.9688C29.3879 12.2254 29.2861 11.2879 29.4613 10.1562H32.8207C32.7686 10.625 32.8278 11.0156 32.9982 11.3281C33.1734 11.6406 33.4433 11.8774 33.8079 12.0384C34.1725 12.1993 34.6128 12.2798 35.1289 12.2798C35.6024 12.2798 36.0167 12.2159 36.3718 12.0881C36.7317 11.9602 37.0181 11.7827 37.2312 11.5554C37.449 11.3281 37.5816 11.0677 37.6289 10.7741C37.6763 10.5043 37.6313 10.2699 37.494 10.071C37.3614 9.87216 37.1341 9.69934 36.8121 9.55256C36.4949 9.40578 36.0782 9.2732 35.5621 9.15483L34.1062 8.79972C32.9035 8.50616 31.9921 8.03741 31.3718 7.39347C30.7563 6.74953 30.5385 5.87595 30.7184 4.77273C30.8699 3.86837 31.244 3.07765 31.8406 2.40057C32.4419 1.72348 33.2018 1.19792 34.1204 0.823864C35.0437 0.445075 36.0593 0.255681 37.1673 0.255681C38.2942 0.255681 39.2411 0.447443 40.0082 0.830965C40.7799 1.20975 41.3363 1.74479 41.6772 2.43608C42.0228 3.12263 42.1223 3.92519 41.9755 4.84375H38.609ZM42.2738 15L44.6886 0.454545H48.2042L46.2724 12.1449H52.3235L51.8406 15H42.2738ZM57.0021 15H53.2237L60.5462 0.454545H65.2266L67.7195 15H63.9411L62.343 4.11932H62.2294L57.0021 15ZM57.4567 9.27557H65.3544L64.8999 11.946H57.0021L57.4567 9.27557Z" fill="#079D46"/>
</g>
<defs>
<filter id="filter0_d_3_8" x="0.64772" y="0.255676" width="71.0717" height="22.929" filterUnits="userSpaceOnUse" color-interpolation-filters="sRGB">
<feFlood flood-opacity="0" result="BackgroundImageFix"/>
<feColorMatrix in="SourceAlpha" type="matrix" values="0 0 0 0 0 0 0 0 0 0 0 0 0 0 0 0 0 0 127 0" result="hardAlpha"/>
<feOffset dy="4"/>
<feGaussianBlur stdDeviation="2"/>
<feComposite in2="hardAlpha" operator="out"/>
<feColorMatrix type="matrix" values="0 0 0 0 0 0 0 0 0 0 0 0 0 0 0 0 0 0 0.25 0"/>
<feBlend mode="normal" in2="BackgroundImageFix" result="effect1_dropShadow_3_8"/>
<feBlend mode="normal" in="SourceGraphic" in2="effect1_dropShadow_3_8" result="shape"/>
</filter>
</defs>
</svg>
