<svg width="68" height="16" viewBox="0 0 68 16" fill="none" xmlns="http://www.w3.org/2000/svg">
<path d="M2.8267 15H0.497159L5.73153 0.454545H8.26705L13.5014 15H11.1719L7.05966 3.09659H6.94602L2.8267 15ZM3.21733 9.30398H10.7741V11.1506H3.21733V9.30398ZM20.3107 15H15.6019V0.454545H20.4599C21.8851 0.454545 23.109 0.745738 24.1317 1.32812C25.1545 1.90578 25.9381 2.73674 26.4826 3.82102C27.0318 4.90057 27.3065 6.19555 27.3065 7.70597C27.3065 9.22112 27.0295 10.5232 26.4755 11.6122C25.9263 12.7012 25.1308 13.5393 24.0891 14.1264C23.0475 14.7088 21.788 15 20.3107 15ZM17.7965 13.0824H20.19C21.2979 13.0824 22.2189 12.8741 22.9528 12.4574C23.6867 12.036 24.2359 11.4276 24.6005 10.6321C24.9651 9.83191 25.1474 8.85653 25.1474 7.70597C25.1474 6.56487 24.9651 5.59659 24.6005 4.80114C24.2406 4.00568 23.7032 3.40199 22.9883 2.99006C22.2733 2.57812 21.3855 2.37216 20.3249 2.37216H17.7965V13.0824ZM42.6705 7.72727C42.6705 9.2803 42.3864 10.6155 41.8182 11.733C41.25 12.8456 40.4711 13.7027 39.4815 14.304C38.4967 14.9006 37.3769 15.1989 36.1222 15.1989C34.8627 15.1989 33.7382 14.9006 32.7486 14.304C31.7637 13.7027 30.9872 12.8433 30.419 11.7259C29.8509 10.6084 29.5668 9.27557 29.5668 7.72727C29.5668 6.17424 29.8509 4.84138 30.419 3.72869C30.9872 2.61127 31.7637 1.75426 32.7486 1.15767C33.7382 0.556344 34.8627 0.255681 36.1222 0.255681C37.3769 0.255681 38.4967 0.556344 39.4815 1.15767C40.4711 1.75426 41.25 2.61127 41.8182 3.72869C42.3864 4.84138 42.6705 6.17424 42.6705 7.72727ZM40.4972 7.72727C40.4972 6.54356 40.3054 5.54687 39.9219 4.73722C39.5431 3.92282 39.0223 3.30729 38.3594 2.89062C37.7012 2.46922 36.9555 2.25852 36.1222 2.25852C35.2841 2.25852 34.536 2.46922 33.8778 2.89062C33.2197 3.30729 32.6989 3.92282 32.3153 4.73722C31.9366 5.54687 31.7472 6.54356 31.7472 7.72727C31.7472 8.91098 31.9366 9.91004 32.3153 10.7244C32.6989 11.5341 33.2197 12.1496 33.8778 12.571C34.536 12.9877 35.2841 13.196 36.1222 13.196C36.9555 13.196 37.7012 12.9877 38.3594 12.571C39.0223 12.1496 39.5431 11.5341 39.9219 10.7244C40.3054 9.91004 40.4972 8.91098 40.4972 7.72727ZM45.4066 15V0.454545H50.7333C51.7655 0.454545 52.6201 0.625 53.2972 0.965909C53.9743 1.30208 54.4809 1.759 54.8171 2.33665C55.1533 2.90956 55.3214 3.55587 55.3214 4.27557C55.3214 4.88163 55.2101 5.39299 54.9876 5.80966C54.765 6.22159 54.4667 6.55303 54.0927 6.80398C53.7234 7.05019 53.3162 7.23011 52.8711 7.34375V7.4858C53.354 7.50947 53.8252 7.66572 54.2844 7.95455C54.7485 8.23864 55.132 8.64347 55.435 9.16903C55.738 9.6946 55.8896 10.3338 55.8896 11.0866C55.8896 11.83 55.7144 12.4976 55.364 13.0895C55.0183 13.6766 54.4833 14.143 53.7589 14.4886C53.0344 14.8295 52.1088 15 50.9819 15H45.4066ZM47.6012 13.1179H50.7688C51.82 13.1179 52.5728 12.9143 53.0273 12.5071C53.4819 12.0999 53.7092 11.5909 53.7092 10.9801C53.7092 10.5208 53.5932 10.0994 53.3612 9.71591C53.1291 9.33239 52.7977 9.02699 52.3668 8.79972C51.9407 8.57244 51.4341 8.45881 50.8469 8.45881H47.6012V13.1179ZM47.6012 6.74716H50.5415C51.034 6.74716 51.4767 6.65246 51.8697 6.46307C52.2674 6.27367 52.5823 6.00852 52.8143 5.66761C53.051 5.32197 53.1694 4.91477 53.1694 4.44602C53.1694 3.8447 52.9587 3.34044 52.5373 2.93324C52.1159 2.52604 51.4696 2.32244 50.5984 2.32244H47.6012V6.74716ZM58.4925 15V0.454545H67.6119V2.34375H60.6871V6.77557H67.136V8.65767H60.6871V13.1108H67.6971V15H58.4925Z" fill="#079D46"/>
</svg>
