<svg width="128" height="29" viewBox="0 0 128 29" fill="none" xmlns="http://www.w3.org/2000/svg">
<g filter="url(#filter0_d_3_10)">
<path d="M9.30682 16H4.59801V1.45455H9.45597C10.8812 1.45455 12.1051 1.74574 13.1278 2.32812C14.1506 2.90578 14.9342 3.73674 15.4787 4.82102C16.0279 5.90057 16.3026 7.19555 16.3026 8.70597C16.3026 10.2211 16.0256 11.5232 15.4716 12.6122C14.9223 13.7012 14.1269 14.5393 13.0852 15.1264C12.0436 15.7088 10.7841 16 9.30682 16ZM6.79261 14.0824H9.18608C10.294 14.0824 11.215 13.8741 11.9489 13.4574C12.6828 13.036 13.232 12.4276 13.5966 11.6321C13.9612 10.8319 14.1435 9.85653 14.1435 8.70597C14.1435 7.56487 13.9612 6.59659 13.5966 5.80114C13.2367 5.00568 12.6993 4.40199 11.9844 3.99006C11.2694 3.57812 10.3816 3.37216 9.32102 3.37216H6.79261V14.0824ZM18.8612 16V5.09091H20.9847V16H18.8612ZM19.9336 3.40767C19.5643 3.40767 19.247 3.28456 18.9819 3.03835C18.7215 2.7874 18.5913 2.48911 18.5913 2.14347C18.5913 1.79309 18.7215 1.49479 18.9819 1.24858C19.247 0.997632 19.5643 0.872159 19.9336 0.872159C20.3029 0.872159 20.6178 0.997632 20.8782 1.24858C21.1433 1.49479 21.2759 1.79309 21.2759 2.14347C21.2759 2.48911 21.1433 2.7874 20.8782 3.03835C20.6178 3.28456 20.3029 3.40767 19.9336 3.40767ZM28.4155 20.3182C27.549 20.3182 26.8033 20.2045 26.1783 19.9773C25.558 19.75 25.0514 19.4493 24.6584 19.0753C24.2654 18.7012 23.9718 18.2917 23.7777 17.8466L25.603 17.0938C25.7308 17.3021 25.9013 17.5223 26.1143 17.7543C26.3321 17.991 26.6257 18.1922 26.995 18.358C27.3691 18.5237 27.8497 18.6065 28.4368 18.6065C29.2417 18.6065 29.907 18.41 30.4325 18.017C30.9581 17.6288 31.2209 17.0085 31.2209 16.1562V14.0114H31.0859C30.9581 14.2434 30.7734 14.5014 30.532 14.7855C30.2952 15.0696 29.9685 15.3158 29.5518 15.5241C29.1352 15.7325 28.593 15.8366 27.9254 15.8366C27.0637 15.8366 26.2872 15.6354 25.5959 15.233C24.9093 14.8258 24.3648 14.2268 23.9624 13.4361C23.5646 12.6406 23.3658 11.6629 23.3658 10.5028C23.3658 9.3428 23.5623 8.34848 23.9553 7.51989C24.353 6.69129 24.8975 6.05682 25.5888 5.61648C26.2801 5.1714 27.0637 4.94886 27.9396 4.94886C28.6167 4.94886 29.1636 5.0625 29.5803 5.28977C29.9969 5.51231 30.3213 5.77273 30.5533 6.07102C30.79 6.36932 30.9723 6.6321 31.1001 6.85938H31.2564V5.09091H33.3374V16.2415C33.3374 17.179 33.1196 17.9484 32.6839 18.5497C32.2483 19.151 31.6589 19.5961 30.9155 19.8849C30.1768 20.1738 29.3435 20.3182 28.4155 20.3182ZM28.3942 14.0753C29.005 14.0753 29.5211 13.9332 29.9425 13.6491C30.3686 13.3603 30.6906 12.9484 30.9084 12.4134C31.1309 11.8736 31.2422 11.2273 31.2422 10.4744C31.2422 9.74053 31.1333 9.09422 30.9155 8.53551C30.6977 7.9768 30.3781 7.54119 29.9567 7.22869C29.5353 6.91146 29.0144 6.75284 28.3942 6.75284C27.755 6.75284 27.2223 6.91856 26.7962 7.25C26.37 7.5767 26.0481 8.02178 25.8303 8.58523C25.6172 9.14867 25.5107 9.77841 25.5107 10.4744C25.5107 11.1894 25.6196 11.8168 25.8374 12.3565C26.0552 12.8963 26.3771 13.3177 26.8033 13.6207C27.2341 13.9238 27.7644 14.0753 28.3942 14.0753ZM36.1854 16V5.09091H38.3089V16H36.1854ZM37.2578 3.40767C36.8885 3.40767 36.5713 3.28456 36.3061 3.03835C36.0457 2.7874 35.9155 2.48911 35.9155 2.14347C35.9155 1.79309 36.0457 1.49479 36.3061 1.24858C36.5713 0.997632 36.8885 0.872159 37.2578 0.872159C37.6271 0.872159 37.942 0.997632 38.2024 1.24858C38.4676 1.49479 38.6001 1.79309 38.6001 2.14347C38.6001 2.48911 38.4676 2.7874 38.2024 3.03835C37.942 3.28456 37.6271 3.40767 37.2578 3.40767ZM46.2582 5.09091V6.79545H40.2994V5.09091H46.2582ZM41.8974 2.47727H44.021V12.7969C44.021 13.2088 44.0825 13.5189 44.2056 13.7273C44.3287 13.9309 44.4873 14.0705 44.6815 14.1463C44.8803 14.2173 45.0958 14.2528 45.3278 14.2528C45.4982 14.2528 45.6474 14.241 45.7752 14.2173C45.9031 14.1937 46.0025 14.1747 46.0735 14.1605L46.457 15.9148C46.3339 15.9621 46.1587 16.0095 45.9315 16.0568C45.7042 16.1089 45.4201 16.1373 45.0792 16.142C44.5205 16.1515 43.9996 16.0521 43.5167 15.8438C43.0337 15.6354 42.6431 15.3134 42.3448 14.8778C42.0465 14.4422 41.8974 13.8954 41.8974 13.2372V2.47727ZM51.782 16.2415C51.0907 16.2415 50.4657 16.1136 49.907 15.858C49.3482 15.5975 48.9055 15.2211 48.5788 14.7287C48.2569 14.2363 48.0959 13.6326 48.0959 12.9176C48.0959 12.3021 48.2143 11.7955 48.451 11.3977C48.6877 11 49.0073 10.6851 49.4098 10.4531C49.8123 10.2211 50.2621 10.0459 50.7592 9.92756C51.2564 9.80919 51.763 9.71922 52.2791 9.65767C52.9325 9.58191 53.4628 9.52036 53.87 9.47301C54.2772 9.42093 54.5732 9.33807 54.7578 9.22443C54.9425 9.1108 55.0348 8.92614 55.0348 8.67045V8.62074C55.0348 8.00047 54.8596 7.51989 54.5092 7.17898C54.1636 6.83807 53.6475 6.66761 52.9609 6.66761C52.246 6.66761 51.6825 6.82623 51.2706 7.14347C50.8634 7.45597 50.5817 7.80398 50.4254 8.1875L48.4297 7.73295C48.6664 7.07008 49.0121 6.53504 49.4666 6.12784C49.9259 5.71591 50.4538 5.41761 51.0504 5.23295C51.647 5.04356 52.2744 4.94886 52.9325 4.94886C53.3681 4.94886 53.8298 5.00095 54.3175 5.10511C54.8099 5.20455 55.2692 5.3892 55.6953 5.65909C56.1262 5.92898 56.4789 6.31487 56.7536 6.81676C57.0282 7.31392 57.1655 7.96023 57.1655 8.75568V16H55.0916V14.5085H55.0064C54.8691 14.7831 54.6631 15.053 54.3885 15.3182C54.1139 15.5833 53.7611 15.8035 53.3303 15.9787C52.8994 16.1539 52.3833 16.2415 51.782 16.2415ZM52.2436 14.5369C52.8307 14.5369 53.3326 14.4209 53.7493 14.1889C54.1707 13.9569 54.4903 13.6539 54.7081 13.2798C54.9306 12.901 55.0419 12.4962 55.0419 12.0653V10.6591C54.9661 10.7348 54.8194 10.8059 54.6016 10.8722C54.3885 10.9337 54.1446 10.9882 53.87 11.0355C53.5954 11.0781 53.3279 11.1184 53.0675 11.1562C52.8071 11.1894 52.5893 11.2178 52.4141 11.2415C52.0021 11.2936 51.6257 11.3812 51.2848 11.5043C50.9486 11.6274 50.6787 11.8049 50.4751 12.0369C50.2763 12.2642 50.1768 12.5672 50.1768 12.946C50.1768 13.4716 50.371 13.8693 50.7592 14.1392C51.1475 14.4044 51.6423 14.5369 52.2436 14.5369ZM62.1175 1.45455V16H59.994V1.45455H62.1175ZM77.7798 8.72727C77.7798 10.2803 77.4957 11.6155 76.9276 12.733C76.3594 13.8456 75.5805 14.7027 74.5909 15.304C73.6061 15.9006 72.4863 16.1989 71.2315 16.1989C69.9721 16.1989 68.8475 15.9006 67.858 15.304C66.8731 14.7027 66.0966 13.8433 65.5284 12.7259C64.9602 11.6084 64.6761 10.2756 64.6761 8.72727C64.6761 7.17424 64.9602 5.84138 65.5284 4.72869C66.0966 3.61127 66.8731 2.75426 67.858 2.15767C68.8475 1.55634 69.9721 1.25568 71.2315 1.25568C72.4863 1.25568 73.6061 1.55634 74.5909 2.15767C75.5805 2.75426 76.3594 3.61127 76.9276 4.72869C77.4957 5.84138 77.7798 7.17424 77.7798 8.72727ZM75.6065 8.72727C75.6065 7.54356 75.4148 6.54687 75.0312 5.73722C74.6525 4.92282 74.1316 4.30729 73.4688 3.89062C72.8106 3.46922 72.0649 3.25852 71.2315 3.25852C70.3935 3.25852 69.6454 3.46922 68.9872 3.89062C68.3291 4.30729 67.8082 4.92282 67.4247 5.73722C67.0459 6.54687 66.8565 7.54356 66.8565 8.72727C66.8565 9.91098 67.0459 10.91 67.4247 11.7244C67.8082 12.5341 68.3291 13.1496 68.9872 13.571C69.6454 13.9877 70.3935 14.196 71.2315 14.196C72.0649 14.196 72.8106 13.9877 73.4688 13.571C74.1316 13.1496 74.6525 12.5341 75.0312 11.7244C75.4148 10.91 75.6065 9.91098 75.6065 8.72727ZM84.9407 16.2202C83.8848 16.2202 82.9757 15.9811 82.2134 15.5028C81.4558 15.0199 80.8735 14.3546 80.4663 13.5071C80.0591 12.6596 79.8555 11.6889 79.8555 10.5952C79.8555 9.48722 80.0638 8.50947 80.4805 7.66193C80.8971 6.80966 81.4843 6.14441 82.2418 5.66619C82.9994 5.18797 83.8919 4.94886 84.9194 4.94886C85.748 4.94886 86.4866 5.10275 87.1353 5.41051C87.784 5.71354 88.3072 6.13968 88.7049 6.68892C89.1074 7.23816 89.3465 7.87973 89.4222 8.61364H87.3555C87.2418 8.10227 86.9814 7.66193 86.5742 7.29261C86.1718 6.9233 85.632 6.73864 84.9549 6.73864C84.363 6.73864 83.8446 6.89489 83.3995 7.20739C82.9592 7.51515 82.6159 7.95549 82.3697 8.52841C82.1235 9.09659 82.0004 9.76894 82.0004 10.5455C82.0004 11.3409 82.1211 12.0275 82.3626 12.6051C82.604 13.1828 82.945 13.6302 83.3853 13.9474C83.8304 14.2647 84.3536 14.4233 84.9549 14.4233C85.3574 14.4233 85.7219 14.3499 86.0487 14.2031C86.3801 14.0516 86.6571 13.8362 86.8796 13.5568C87.1069 13.2775 87.2655 12.9413 87.3555 12.5483H89.4222C89.3465 13.2538 89.1168 13.8835 88.7333 14.4375C88.3498 14.9915 87.8361 15.4271 87.1921 15.7443C86.5529 16.0616 85.8024 16.2202 84.9407 16.2202ZM96.3949 16.2202C95.3201 16.2202 94.3944 15.9905 93.6179 15.5312C92.8461 15.0672 92.2495 14.4162 91.8281 13.5781C91.4115 12.7353 91.2031 11.7481 91.2031 10.6165C91.2031 9.49905 91.4115 8.5142 91.8281 7.66193C92.2495 6.80966 92.8366 6.14441 93.5895 5.66619C94.3471 5.18797 95.2325 4.94886 96.2457 4.94886C96.8613 4.94886 97.4579 5.05066 98.0355 5.25426C98.6132 5.45786 99.1316 5.77746 99.5909 6.21307C100.05 6.64867 100.412 7.21449 100.678 7.91051C100.943 8.6018 101.075 9.44223 101.075 10.4318V11.1847H92.4034V9.59375H98.9943C98.9943 9.03504 98.8807 8.54025 98.6534 8.10938C98.4261 7.67377 98.1065 7.33049 97.6946 7.07955C97.2874 6.8286 96.8092 6.70312 96.2599 6.70312C95.6634 6.70312 95.1425 6.84991 94.6974 7.14347C94.2571 7.43229 93.9162 7.81108 93.6747 8.27983C93.438 8.74384 93.3196 9.24811 93.3196 9.79261V11.0355C93.3196 11.7647 93.4474 12.3849 93.7031 12.8963C93.9635 13.4077 94.3258 13.7983 94.7898 14.0682C95.2538 14.3333 95.7959 14.4659 96.4162 14.4659C96.8187 14.4659 97.1856 14.4091 97.517 14.2955C97.8485 14.1771 98.1349 14.0019 98.3764 13.7699C98.6179 13.5379 98.8026 13.2514 98.9304 12.9105L100.94 13.2727C100.779 13.8646 100.491 14.383 100.074 14.8281C99.6619 15.2685 99.1435 15.6117 98.5185 15.858C97.8982 16.0994 97.1903 16.2202 96.3949 16.2202ZM106.606 16.2415C105.915 16.2415 105.29 16.1136 104.731 15.858C104.172 15.5975 103.73 15.2211 103.403 14.7287C103.081 14.2363 102.92 13.6326 102.92 12.9176C102.92 12.3021 103.038 11.7955 103.275 11.3977C103.512 11 103.832 10.6851 104.234 10.4531C104.636 10.2211 105.086 10.0459 105.583 9.92756C106.081 9.80919 106.587 9.71922 107.103 9.65767C107.757 9.58191 108.287 9.52036 108.694 9.47301C109.101 9.42093 109.397 9.33807 109.582 9.22443C109.767 9.1108 109.859 8.92614 109.859 8.67045V8.62074C109.859 8.00047 109.684 7.51989 109.333 7.17898C108.988 6.83807 108.472 6.66761 107.785 6.66761C107.07 6.66761 106.507 6.82623 106.095 7.14347C105.688 7.45597 105.406 7.80398 105.25 8.1875L103.254 7.73295C103.491 7.07008 103.836 6.53504 104.291 6.12784C104.75 5.71591 105.278 5.41761 105.875 5.23295C106.471 5.04356 107.099 4.94886 107.757 4.94886C108.192 4.94886 108.654 5.00095 109.142 5.10511C109.634 5.20455 110.093 5.3892 110.52 5.65909C110.95 5.92898 111.303 6.31487 111.578 6.81676C111.852 7.31392 111.99 7.96023 111.99 8.75568V16H109.916V14.5085H109.831C109.693 14.7831 109.487 15.053 109.213 15.3182C108.938 15.5833 108.585 15.8035 108.154 15.9787C107.724 16.1539 107.208 16.2415 106.606 16.2415ZM107.068 14.5369C107.655 14.5369 108.157 14.4209 108.574 14.1889C108.995 13.9569 109.315 13.6539 109.532 13.2798C109.755 12.901 109.866 12.4962 109.866 12.0653V10.6591C109.79 10.7348 109.644 10.8059 109.426 10.8722C109.213 10.9337 108.969 10.9882 108.694 11.0355C108.42 11.0781 108.152 11.1184 107.892 11.1562C107.631 11.1894 107.413 11.2178 107.238 11.2415C106.826 11.2936 106.45 11.3812 106.109 11.5043C105.773 11.6274 105.503 11.8049 105.299 12.0369C105.1 12.2642 105.001 12.5672 105.001 12.946C105.001 13.4716 105.195 13.8693 105.583 14.1392C105.972 14.4044 106.467 14.5369 107.068 14.5369ZM116.942 9.52273V16H114.818V5.09091H116.857V6.86648H116.991C117.242 6.28883 117.635 5.82481 118.17 5.47443C118.71 5.12405 119.39 4.94886 120.209 4.94886C120.952 4.94886 121.603 5.10511 122.162 5.41761C122.721 5.72538 123.154 6.18466 123.462 6.79545C123.769 7.40625 123.923 8.16146 123.923 9.06108V16H121.8V9.31676C121.8 8.52604 121.594 7.90814 121.182 7.46307C120.77 7.01326 120.204 6.78835 119.484 6.78835C118.992 6.78835 118.554 6.89489 118.17 7.10795C117.792 7.32102 117.491 7.63352 117.268 8.04545C117.051 8.45265 116.942 8.94508 116.942 9.52273Z" fill="#079D46"/>
</g>
<defs>
<filter id="filter0_d_3_10" x="0.598007" y="0.872162" width="127.325" height="27.446" filterUnits="userSpaceOnUse" color-interpolation-filters="sRGB">
<feFlood flood-opacity="0" result="BackgroundImageFix"/>
<feColorMatrix in="SourceAlpha" type="matrix" values="0 0 0 0 0 0 0 0 0 0 0 0 0 0 0 0 0 0 127 0" result="hardAlpha"/>
<feOffset dy="4"/>
<feGaussianBlur stdDeviation="2"/>
<feComposite in2="hardAlpha" operator="out"/>
<feColorMatrix type="matrix" values="0 0 0 0 0 0 0 0 0 0 0 0 0 0 0 0 0 0 0.25 0"/>
<feBlend mode="normal" in2="BackgroundImageFix" result="effect1_dropShadow_3_10"/>
<feBlend mode="normal" in="SourceGraphic" in2="effect1_dropShadow_3_10" result="shape"/>
</filter>
</defs>
</svg>
